<svg version="1.1" id="Isolation_Mode" xmlns="http://www.w3.org/2000/svg" xmlns:xlink="http://www.w3.org/1999/xlink" x="0px"
	 y="0px" viewBox="0 0 262 262" style="enable-background:new 0 0 262 262;" xml:space="preserve">
<style type="text/css">
	.st0{fill:#EC008C;}
	.st1{fill:#00AEEF;}
	.st2{fill:#2E3192;}
	.st3{fill:#FFE100;}
	.st4{fill:#00A651;}
	.st5{fill:#ED1C24;}
	.st6{fill:#9FAAAD;}
</style>
<g>
	<g>
		<path class="st0" d="M65.1,131c0-24.9,13-49.2,36.1-62.5l0,0l0,0L0,106.8L65.1,131L65.1,131z"/>
		<path class="st0" d="M209.5,131L209.5,131c0,12.3-3.1,24.7-9.7,36.1c-6.6,11.4-15.8,20.3-26.4,26.4l0,0l53.5,44.3L209.5,131
			L209.5,131z"/>
		<path class="st0" d="M124.6,109c3.8-2.2,8.1-3.4,12.7-3.4c14.1,0,25.5,11.4,25.5,25.5l10.6-62.5l0,0L124.6,109L124.6,109z"/>
		<path class="st1" d="M173.4,193.5c-21.6,12.4-49.1,13.4-72.2,0l0,0L185,262L173.4,193.5L173.4,193.5z"/>
		<polygon class="st2" points="185.1,262 226.9,237.8 173.4,193.5 		"/>
		<path class="st1" d="M137.3,58.8c13.1,0,25.5,3.5,36.1,9.7l0,0L185.1,0l-83.8,68.5l0,0C111.8,62.3,124.2,58.8,137.3,58.8"/>
		<path class="st1" d="M124.6,153.1L124.6,153.1c-3.7-2.2-7-5.3-9.3-9.3c-7-12.2-2.9-27.8,9.3-34.8l-59.5,22l0,0L124.6,153.1z"/>
		<path class="st2" d="M124.6,108.9L124.6,108.9L124.6,108.9l48.8-40.5c-10.6-6.1-22.9-9.7-36.1-9.7s-25.5,3.5-36.1,9.7l0,0
			c-23.1,13.4-36,37.7-36.1,62.6L124.6,108.9"/>
		<path class="st3" d="M173.4,68.5C195,81,209.5,104.3,209.5,131l0,0l17.4-106.8L173.4,68.5L173.4,68.5z"/>
		<polygon class="st4" points="226.9,24.2 185.1,0 173.4,68.5 		"/>
		<path class="st3" d="M101.2,193.5L101.2,193.5c-10.6-6.1-19.8-15-26.4-26.4s-9.7-23.8-9.7-36.1l0,0L0,155.2L101.2,193.5
			L101.2,193.5z"/>
		<polygon class="st5" points="0,106.8 0,155.2 65.1,131 		"/>
		<path class="st3" d="M162.8,131c0,4.3-1.1,8.7-3.4,12.7c-7,12.2-22.6,16.4-34.8,9.3l48.8,40.4l0,0L162.8,131L162.8,131z"/>
		<path class="st5" d="M209.5,131L209.5,131c0-26.7-14.5-50-36.1-62.5L162.8,131l10.6,62.5c10.6-6.1,19.8-15,26.4-26.4
			C206.4,155.7,209.5,143.3,209.5,131"/>
		<path class="st4" d="M124.6,153.1L124.6,153.1L124.6,153.1L65.1,131c0,12.3,3.1,24.7,9.7,36.1c6.6,11.4,15.8,20.3,26.4,26.4l0,0
			c23.1,13.4,50.6,12.4,72.2,0L124.6,153.1L124.6,153.1z"/>
	</g>
</g>
</svg>
