<?xml version="1.0" encoding="utf-8"?>
<!-- Generator: Adobe Illustrator 21.0.2, SVG Export Plug-In . SVG Version: 6.00 Build 0)  -->
<svg version="1.1" id="Layer_1" xmlns="http://www.w3.org/2000/svg" xmlns:xlink="http://www.w3.org/1999/xlink" x="0px" y="0px"
	 viewBox="0 0 96 96" style="enable-background:new 0 0 96 96;" xml:space="preserve">
<style type="text/css">
	.st0{fill:#FFFFFF;}
</style>
<g>
	<path class="st0" d="M80.7,9.7c-3.9-3.9-10.2-3.9-14.1,0L15.3,60.9c-0.2,0.2-0.3,0.3-0.4,0.5c0,0,0,0.1-0.1,0.1
		c-0.1,0.2-0.2,0.3-0.2,0.5v0.1L7.8,84.3c-0.3,1.1,0,2.2,0.7,3c0.6,0.6,1.3,0.9,2.1,0.9c0.3,0,0.6,0,0.9-0.1l22.1-6.8h0.1
		c0.2-0.1,0.4-0.1,0.5-0.2c0,0,0.1,0,0.1-0.1c0.2-0.1,0.4-0.2,0.5-0.4L86,29.4c3.9-3.9,3.9-10.2,0-14.1L80.7,9.7z M15.2,80.6
		l3.7-11.9l8.3,8.3L15.2,80.6z M32.8,74.1l-11.1-11l38.8-38.8l11.1,11.1L32.8,74.1z M81.8,25l-6,6l-11-11l6-6c1.6-1.6,4.1-1.6,5.7,0
		l5.4,5.4C83.4,20.9,83.4,23.5,81.8,25z"/>
</g>
</svg>
