<?xml version="1.0" encoding="utf-8"?>
<!-- Generator: Adobe Illustrator 21.0.2, SVG Export Plug-In . SVG Version: 6.00 Build 0)  -->
<svg version="1.1" id="Layer_1" xmlns="http://www.w3.org/2000/svg" xmlns:xlink="http://www.w3.org/1999/xlink" x="0px" y="0px"
	 viewBox="0 0 300 64" style="enable-background:new 0 0 300 64;" xml:space="preserve">
<style type="text/css">
	.st0{fill:none;}
	.st1{fill:#EB008B;}
	.st2{fill:#00ADEE;}
	.st3{fill:#2E3191;}
	.st4{fill:#FFE000;}
	.st5{fill:#00A551;}
	.st6{fill:#EC1C24;}
</style>
<g>
	<g>
		<g>
			<path d="M84,32.1c0,8.4,4.1,11.5,12.1,11.5c2.7,0,5.1-0.4,6.2-0.5V48c-1.2,0.3-5.1,0.7-8.2,0.7c-9.6,0-17.4-5.1-17.4-16.6
				c0-11.5,7.8-16.6,17.4-16.6c3.5,0,6.8,0.5,8.2,0.7v4.8c-1.7-0.2-3.9-0.5-6.2-0.5C88.1,20.6,84,23.7,84,32.1"/>
			<path d="M116.9,28.1c-4.6,0-6,2.8-6,8.1c0,5.3,1.5,8.1,6,8.1c4.5,0,6-2.8,6-8.1C122.9,30.9,121.4,28.1,116.9,28.1 M117,48.7
				c-8.2,0-12.8-5.1-12.8-12.6c0-7.6,4.7-12.6,12.8-12.6c8,0,12.7,4.9,12.7,12.6C129.7,43.6,124.4,48.7,117,48.7"/>
			<path d="M147.5,32.1c0-3.3-1.4-4.3-3.9-4.3c-2.5,0-3.9,1-3.9,4.2c0,3.3,1.4,4.3,3.9,4.3C146.1,36.3,147.5,35.4,147.5,32.1
				 M151.8,27.5c0.5,0.5,1.9,1.9,1.9,5.1c0,3.2-2.2,7.9-10.5,7.9c-1.4,0-1.8-0.2-2.1-0.2c-0.6,0.4-1.7,1.4-1.7,2.5
				c0,1.3,2,1.4,4.6,1.4h1.8c4.8,0,10.5,0.3,10.5,6.1c0,5.9-5.8,8-12.6,8c-4.9,0-6.9-0.4-9.3-1V53c0.8,0.2,5.2,1.1,8.3,1.1
				c3.6,0,6.9-0.8,6.9-2.9c0-4.4-16.3,1.6-16.3-7c0-3,2.6-4.5,3.5-5.5c-0.7-0.3-3.8-2-3.8-7c0-5.5,4.9-8,10.2-8c2,0,2.8,0.2,3.4,0.4
				l10.1-0.4v4C155.3,27.7,153.4,27.5,151.8,27.5"/>
			<path d="M175.7,48.1V32.5c0-1.2-0.1-3.5-3.4-3.5c-2.3,0-5.3,1.1-6,1.4v17.8h-6.5v-24h5.9v2.2c2.7-1.2,6-2.5,9.2-2.5
				c3.4,0,7.4,2,7.4,7.5v16.9H175.7z"/>
		</g>
		<path d="M187.9,24.1h6.5v24h-6.5V24.1z M187.9,14.1h6.5v6.1h-6.5V14.1z"/>
		<g>
			<path d="M214.2,37.8c-0.8,0-3.1,0-3.8,0c-2.7,0-5.1,0.2-5.1,3.4c0,3.2,2.4,3.4,5.1,3.4c1.4,0,2.5-0.1,3.8-0.3V37.8z M209.7,48.7
				c-5.8,0-11.1-1.1-11.1-7.8c0-7,7.6-7.3,15.7-7.3c0-3.8,0-5.5-6-5.5c-3.2,0-6.5,0.5-8.1,0.9v-4.5c2-0.5,5.9-0.9,8.5-0.9
				c5.7,0,12.1,0.6,12.1,8v16.4C217.2,48.5,214.2,48.7,209.7,48.7"/>
			<path d="M242.4,48.1V32.5c0-1.2-0.1-3.5-3.4-3.5c-2.3,0-5.3,1.1-6,1.4v17.8h-6.5v-24h5.9v2.2c2.7-1.2,6-2.5,9.2-2.5
				c3.4,0,7.4,2,7.4,7.5v16.9H242.4z"/>
			<path d="M267,48.7c-8,0-13.7-4.3-13.7-13c0-7.8,6.1-12.1,13.4-12.1c2.3,0,4.7,0.2,7,0.7v4.3c-1.6-0.2-2.9-0.3-4.4-0.3
				c-6.1,0-9.1,1.9-9.1,7.7c0,5.9,3,7.9,9.1,7.9c1.6,0,3.2-0.1,4.6-0.4v4.4C271.5,48.5,269.3,48.7,267,48.7"/>
			<path d="M287.9,27.8c-3.7,0-5.1,2.9-5.1,6.1h10.2C292.9,30.8,292.2,27.8,287.9,27.8 M275.9,36.4c0-7.8,4-12.8,12.3-12.8
				c8.7,0,11.8,4.4,11.8,13.5v0.8h-17.2c0.4,5.4,4.4,6.5,8.4,6.5c2.8,0,4.9-0.4,6.9-0.8v4.1c-1.5,0.3-4.4,1-8.5,1
				C282,48.7,275.9,45.6,275.9,36.4"/>
		</g>
	</g>
	<g>
		<polygon class="st0" points="15.9,32.1 15.9,32.1 15.9,32.1 		"/>
		<polygon class="st0" points="42.5,16.8 42.5,16.8 42.5,16.8 		"/>
		<polygon class="st0" points="42.5,47.4 42.5,47.4 42.5,47.4 		"/>
		<path class="st1" d="M15.9,32.1c0-6.1,3.2-12,8.8-15.3l0,0l0,0l0,0L0,26.2L15.9,32.1L15.9,32.1z"/>
		<path class="st1" d="M51.3,32.1L51.3,32.1c0,3-0.8,6.1-2.4,8.8c-1.6,2.8-3.9,5-6.5,6.5l0,0l13.1,10.9L51.3,32.1L51.3,32.1z"/>
		<path class="st1" d="M30.5,26.7c0.9-0.5,2-0.8,3.1-0.8c3.4,0,6.2,2.8,6.2,6.2l2.6-15.3c0,0,0,0,0,0L30.5,26.7L30.5,26.7z"/>
		<path class="st2" d="M42.5,47.4c-5.3,3-12,3.3-17.7,0l0,0l20.5,16.8L42.5,47.4L42.5,47.4z"/>
		<polygon class="st3" points="45.3,64.2 55.6,58.2 42.5,47.4 		"/>
		<path class="st2" d="M33.6,14.4c3.2,0,6.2,0.9,8.8,2.4l0,0L45.3,0L24.8,16.8l0,0C27.4,15.3,30.4,14.4,33.6,14.4z"/>
		<path class="st2" d="M30.5,37.5L30.5,37.5c-0.9-0.5-1.7-1.3-2.3-2.3c-1.7-3-0.7-6.8,2.3-8.5l-14.6,5.4c0,0,0,0,0,0L30.5,37.5
			L30.5,37.5z"/>
		<path class="st3" d="M30.5,26.7L30.5,26.7L30.5,26.7l12-9.9c-2.6-1.5-5.6-2.4-8.8-2.4c-3.2,0-6.2,0.9-8.8,2.4l0,0
			C19.1,20,16,26,15.9,32.1C15.9,32.1,30.5,26.7,30.5,26.7z"/>
		<path class="st4" d="M42.5,16.8c5.3,3.1,8.8,8.8,8.8,15.3h0l4.3-26.2L42.5,16.8L42.5,16.8z"/>
		<polygon class="st5" points="55.6,5.9 45.3,0 42.5,16.8 		"/>
		<path class="st4" d="M24.8,47.4L24.8,47.4c-2.6-1.5-4.9-3.7-6.5-6.5c-1.6-2.8-2.4-5.8-2.4-8.8l0,0L0,38L24.8,47.4L24.8,47.4
			L24.8,47.4z"/>
		<polygon class="st6" points="0,26.2 0,38 15.9,32.1 		"/>
		<path class="st4" d="M39.9,32.1c0,1.1-0.3,2.1-0.8,3.1c-1.7,3-5.5,4-8.5,2.3l12,9.9c0,0,0,0,0,0L39.9,32.1L39.9,32.1z"/>
		<path class="st6" d="M51.3,32.1L51.3,32.1c0-6.5-3.6-12.3-8.8-15.3l-2.6,15.3c0,0,2.6,15.3,2.6,15.3c2.6-1.5,4.9-3.7,6.5-6.5
			C50.5,38.1,51.3,35.1,51.3,32.1"/>
		<path class="st5" d="M30.5,37.5L30.5,37.5L30.5,37.5l-14.6-5.4c0,3,0.8,6,2.4,8.8c1.6,2.8,3.9,5,6.5,6.5l0,0
			c5.7,3.3,12.4,3,17.7,0L30.5,37.5L30.5,37.5z"/>
	</g>
</g>
</svg>
